<?xml version="1.0" encoding="UTF-8" standalone="no"?>
<svg width="20px" height="20px" viewBox="0 0 20 20" version="1.1" xmlns="http://www.w3.org/2000/svg" xmlns:xlink="http://www.w3.org/1999/xlink" xmlns:sketch="http://www.bohemiancoding.com/sketch/ns">
    <title>singleproperties v2 2</title>
    <description>Created with Sketch (http://www.bohemiancoding.com/sketch)</description>
    <defs></defs>
    <g id="Page-1" stroke="none" stroke-width="1" fill="none" fill-rule="evenodd" sketch:type="MSPage">
        <g id="Menu-2" sketch:type="MSArtboardGroup" transform="translate(-716.000000, -464.000000)" fill="#434343">
            <g id=":-share_strip_reduced" sketch:type="MSLayerGroup" transform="translate(173.000000, 454.000000)">
                <g id="Share-Strip" sketch:type="MSShapeGroup">
                    <path d="M544.990795,10 C543.891309,10 543,10.8982124 543,11.9907951 L543,28.0092049 C543,29.1086907 543.898212,30 544.990795,30 L561.009205,30 C562.108691,30 563,29.1017876 563,28.0092049 L563,11.9907951 C563,10.8913093 562.101788,10 561.009205,10 L544.990795,10 Z M553.561543,30 L553.561543,22.2455469 L551.07627,22.2455469 L551.07627,19.2234447 L553.561543,19.2234447 L553.561543,16.9947569 C553.561543,14.4083386 555.065955,13 557.263407,13 C558.315938,13 559.220557,13.082305 559.484297,13.1190684 L559.484297,15.8220042 L557.960164,15.8227545 C556.765152,15.8227545 556.533781,16.4189969 556.533781,17.293966 L556.533781,19.2234447 L559.383831,19.2234447 L559.012694,22.2455469 L556.533781,22.2455469 L556.533781,30 L553.561543,30 Z" id="facebook"></path>
                </g>
            </g>
        </g>
    </g>
</svg>