<?xml version="1.0" encoding="UTF-8" standalone="no"?>
<svg width="20px" height="20px" viewBox="0 0 20 20" version="1.1" xmlns="http://www.w3.org/2000/svg" xmlns:xlink="http://www.w3.org/1999/xlink" xmlns:sketch="http://www.bohemiancoding.com/sketch/ns">
    <title>icon_facebook</title>
    <description>Created with Sketch (http://www.bohemiancoding.com/sketch)</description>
    <defs></defs>
    <g id="Page-1" stroke="none" stroke-width="1" fill="none" fill-rule="evenodd" sketch:type="MSPage">
        <g id="Twitter-+-Facebook-+-Email" sketch:type="MSLayerGroup" fill="#FFFFFF">
            <path d="M18.599133,0 L1.08645655,0 C0.486287034,0 0,0.494053819 0,1.103809 L0,18.896191 C0,19.5057963 0.486287034,20 1.08645655,20 L10.5146571,20 L10.5146571,12.2549776 L7.94927728,12.2549776 L7.94927728,9.23655084 L10.5146571,9.23655084 L10.5146571,7.01057349 C10.5146571,4.42730073 12.0676335,3.02067487 14.3358421,3.02067487 C15.4222986,3.02067487 16.3561497,3.10287979 16.6282433,3.13959849 L16.6282433,5.83924704 L15.0551309,5.8399964 C13.821527,5.8399964 13.5826983,6.43551372 13.5826983,7.30941872 L13.5826983,9.23655084 L16.5246869,9.23655084 L16.1415874,12.2549776 L13.5826983,12.2549776 L13.5826983,20 L18.599133,20 C19.199155,20 19.6855895,19.5057963 19.6855895,18.896191 L19.6855895,1.103809 C19.6855895,0.494053819 19.199155,0 18.599133,0" id="Facebook" sketch:type="MSShapeGroup"></path>
        </g>
    </g>
</svg>