<?xml version="1.0" encoding="UTF-8" standalone="no"?>
<svg width="23px" height="18px" viewBox="0 0 23 18" version="1.1" xmlns="http://www.w3.org/2000/svg" xmlns:xlink="http://www.w3.org/1999/xlink" xmlns:sketch="http://www.bohemiancoding.com/sketch/ns">
    <title>icon_twitter</title>
    <description>Created with Sketch (http://www.bohemiancoding.com/sketch)</description>
    <defs></defs>
    <g id="Page-1" stroke="none" stroke-width="1" fill="none" fill-rule="evenodd" sketch:type="MSPage">
        <g id="Twitter-+-Facebook-+-Email" sketch:type="MSLayerGroup" transform="translate(-77.000000, -2.000000)" fill="#FFFFFF">
            <path d="M84.0754683,20 C81.4688684,20 79.0426526,19.2477653 77,17.9584747 C77.3610974,18.0004411 77.7285313,18.0219104 78.1010673,18.0219104 C80.2635371,18.0219104 82.2537697,17.2954388 83.8334474,16.0767133 C81.813672,16.040013 80.109075,14.7262555 79.5217568,12.9208923 C79.8035247,12.9739578 80.0926989,13.0023945 80.3901022,13.0023945 C80.8111082,13.0023945 81.2188652,12.9468984 81.6062138,12.8430358 C79.4946004,12.4256407 77.9036487,10.5890052 77.9036487,8.38731107 C77.9036487,8.36819127 77.9036487,8.34915248 77.9039779,8.33019471 C78.5263525,8.67054344 79.2380139,8.87494711 79.9946891,8.89852281 C78.7561941,8.08366265 77.9412562,6.69277786 77.9412562,5.11628514 C77.9412562,4.28352042 78.1688759,3.50293008 78.5661818,2.83179253 C80.8427084,5.58099362 84.2437555,7.39008363 88.0798805,7.57958034 C88.0012093,7.24700915 87.9603102,6.90017914 87.9603102,6.54403226 C87.9603102,4.03455788 90.0269921,2 92.5761521,2 C93.9036871,2 95.1032579,2.55188182 95.9452699,3.43503857 C96.9966328,3.23120201 97.9844663,2.85301875 98.8762649,2.33232813 C98.5316259,3.39339629 97.799803,4.2839255 96.846779,4.84633942 C97.7804643,4.73648156 98.6700411,4.49221795 99.4978166,4.13080503 C98.8789806,5.04207437 98.0963834,5.84243264 97.1946274,6.48310814 C97.2035149,6.67795191 97.2079587,6.87392991 97.2079587,7.07096112 C97.2079587,13.0757951 92.5653719,20 84.0754683,20" id="Twitter" sketch:type="MSShapeGroup"></path>
        </g>
    </g>
</svg>