<?xml version="1.0" encoding="UTF-8" standalone="no"?>
<svg width="20px" height="20px" viewBox="0 0 20 20" version="1.1" xmlns="http://www.w3.org/2000/svg" xmlns:xlink="http://www.w3.org/1999/xlink" xmlns:sketch="http://www.bohemiancoding.com/sketch/ns">
    <title>singleproperties v2 2</title>
    <description>Created with Sketch (http://www.bohemiancoding.com/sketch)</description>
    <defs></defs>
    <g id="Page-1" stroke="none" stroke-width="1" fill="none" fill-rule="evenodd" sketch:type="MSPage">
        <g id="Menu-2" sketch:type="MSArtboardGroup" transform="translate(-691.000000, -464.000000)" fill="#434343">
            <g id=":-share_strip_reduced" sketch:type="MSLayerGroup" transform="translate(173.000000, 454.000000)">
                <g id="Share-Strip" sketch:type="MSShapeGroup">
                    <path d="M519.990795,10 C518.891309,10 518,10.8982124 518,11.9907951 L518,28.0092049 C518,29.1086907 518.898212,30 519.990795,30 L536.009205,30 C537.108691,30 538,29.1017876 538,28.0092049 L538,11.9907951 C538,10.8913093 537.101788,10 536.009205,10 L519.990795,10 Z M522,24.6389832 C522.208654,24.6669607 522.42097,24.6812736 522.636234,24.6812736 C523.885782,24.6812736 525.035806,24.1969592 525.948597,23.3844755 C524.781503,23.3600086 523.796529,22.4841703 523.457156,21.2805948 C523.619971,21.3159719 523.787066,21.3349297 523.958916,21.3349297 C524.202187,21.3349297 524.437803,21.2979323 524.661626,21.2286905 C523.441465,20.9504271 522.522159,19.7260035 522.522159,18.2582074 C522.522159,18.2454608 522.522159,18.2327683 522.522349,18.2201298 C522.881978,18.447029 523.2932,18.5832981 523.730433,18.5990152 C523.014788,18.0557751 522.54389,17.1285186 522.54389,16.0775234 C522.54389,15.5223469 522.675416,15.0019534 522.904993,14.5545284 C524.220447,16.3873291 526.185687,17.5933891 528.40233,17.7197202 C528.356871,17.4980061 528.333238,17.2667861 528.333238,17.0293548 C528.333238,15.3563719 529.527437,14 531.000428,14 C531.767523,14 532.460675,14.3679212 532.947218,14.9566924 C533.554731,14.8208013 534.125535,14.5686792 534.640846,14.2215521 C534.441702,14.9289309 534.01883,15.522617 533.468141,15.8975596 C534.007656,15.824321 534.521683,15.6614786 535,15.4205367 C534.642416,16.0280496 534.190204,16.5616218 533.669139,16.9887388 C533.674275,17.1186346 533.676843,17.2492866 533.676843,17.3806407 C533.676843,21.3838634 530.994199,26 526.088445,26 C524.582263,26 523.180314,25.4985102 522,24.6389832 Z" id="twitter"></path>
                </g>
            </g>
        </g>
    </g>
</svg>