<?xml version="1.0" encoding="UTF-8" standalone="no"?>
<svg width="96px" height="30px" viewBox="0 0 96 30" version="1.1" xmlns="http://www.w3.org/2000/svg" xmlns:xlink="http://www.w3.org/1999/xlink" xmlns:sketch="http://www.bohemiancoding.com/sketch/ns">
    <title>sprite</title>
    <description>Created with Sketch (http://www.bohemiancoding.com/sketch)</description>
    <defs></defs>
    <g id="Page-1" stroke="none" stroke-width="1" fill="none" fill-rule="evenodd" sketch:type="MSPage">
        <path d="M48,30 C56.2842717,30 63,23.2842717 63,15 C63,6.71572834 56.2842717,0 48,0 C39.7157283,0 33,6.71572834 33,15 C33,23.2842717 39.7157283,30 48,30 Z" id="Oval-1" stroke="#E47413" stroke-width="2" fill="#FF8215" sketch:type="MSShapeGroup"></path>
        <path d="M81,30 C89.2842717,30 96,23.2842717 96,15 C96,6.71572834 89.2842717,0 81,0 C72.7157283,0 66,6.71572834 66,15 C66,23.2842717 72.7157283,30 81,30 Z" id="Oval-1" stroke="#E47413" stroke-width="2" fill="#E57412" sketch:type="MSShapeGroup"></path>
        <path d="M15,30 C23.2842717,30 30,23.2842717 30,15 C30,6.71572834 23.2842717,0 15,0 C6.71572834,0 0,6.71572834 0,15 C0,23.2842717 6.71572834,30 15,30 Z" id="Oval-1" stroke="#E47413" stroke-width="2" fill="#FAFAFA" sketch:type="MSShapeGroup"></path>
    </g>
</svg>