<?xml version="1.0" encoding="UTF-8" standalone="no"?>
<svg width="29px" height="20px" viewBox="0 0 29 20" version="1.1" xmlns="http://www.w3.org/2000/svg" xmlns:xlink="http://www.w3.org/1999/xlink" xmlns:sketch="http://www.bohemiancoding.com/sketch/ns">
    <title>icon_email</title>
    <description>Created with Sketch (http://www.bohemiancoding.com/sketch)</description>
    <defs></defs>
    <g id="Page-1" stroke="none" stroke-width="1" fill="none" fill-rule="evenodd" sketch:type="MSPage">
        <g id="Twitter-+-Facebook-+-Email" sketch:type="MSLayerGroup" transform="translate(-151.000000, -1.000000)" fill="#FFFFFF">
            <path d="M151.008734,5.7166257 L151.008734,5.00180708 C151.008734,2.79132842 152.797883,1 155.00491,1 L175.536574,1 C177.748446,1 179.532751,2.79167006 179.532751,5.00180708 L179.532751,6.08927885 C175.469078,8.18938666 168.141502,11.768 165.394508,11.768 C162.477062,11.7680001 154.706018,7.73149719 151.008734,5.7166257 Z M151.008734,8.11630409 L151.008734,16.5981929 C151.008734,18.8083299 152.793039,20.6 155.00491,20.6 L175.536574,20.6 C177.743602,20.6 179.532751,18.8086716 179.532751,16.5981929 L179.532751,8.50288282 C175.43356,10.6004147 168.030324,14.2 165.500141,14.2 C162.806393,14.2000001 154.785385,10.1199774 151.008734,8.11630409 Z" id="Email" sketch:type="MSShapeGroup"></path>
        </g>
    </g>
</svg>